Coordinates
version=1
nRows=11
nColumns=63
inDegrees=yes

Units are S.I. units (second, meters, Newtons, ...)
If the header above contains a line with 'inDegrees', this indicates whether rotational values are in degrees (yes) or radians (no).

endheader
time	pelvis_tilt	pelvis_list	pelvis_rotation	pelvis_tx	pelvis_ty	pelvis_tz	hip_flexion_r	hip_adduction_r	hip_rotation_r	knee_angle_r	knee_angle_r_beta	ankle_angle_r	subtalar_angle_r	mtp_angle_r	hip_flexion_l	hip_adduction_l	hip_rotation_l	knee_angle_l	knee_angle_l_beta	ankle_angle_l	subtalar_angle_l	mtp_angle_l	L5_S1_Flex_Ext	L5_S1_Lat_Bending	L5_S1_axial_rotation	L4_L5_Flex_Ext	L4_L5_Lat_Bending	L4_L5_axial_rotation	L3_L4_Flex_Ext	L3_L4_Lat_Bending	L3_L4_axial_rotation	L2_L3_Flex_Ext	L2_L3_Lat_Bending	L2_L3_axial_rotation	L1_L2_Flex_Ext	L1_L2_Lat_Bending	L1_L2_axial_rotation	L1_T12_Flex_Ext	L1_T12_Lat_Bending	L1_T12_axial_rotation	Abs_r3	Abs_r2	Abs_r1	Abs_t1	Abs_t2	neck_flexion	neck_bending	neck_rotation	arm_flex_r	arm_add_r	arm_rot_r	elbow_flex_r	pro_sup_r	wrist_flex_r	wrist_dev_r	arm_flex_l	arm_add_l	arm_rot_l	elbow_flex_l	pro_sup_l	wrist_flex_l	wrist_dev_l
4.083333	3.525931	-7.709019	94.525810	0.302667	0.951780	0.608115	-2.544727	5.426696	-10.051950	9.166878	0.159992	32.143808	17.966496	0.000000	-5.307144	-7.693925	10.586526	1.308024	0.022829	26.029327	-12.979689	0.000000	-0.478489	0.920506	1.500081	-0.888601	1.224273	1.593836	-0.786109	2.238118	1.593836	-0.546865	2.238118	1.312571	-0.444325	1.877095	1.218816	-0.273408	1.425863	1.125061	-3.417797	10.412946	8.343000	0.000000	0.000000	16.249990	-9.686282	-6.517337	2.839338	-18.474615	49.043126	25.852600	68.517714	-3.615388	1.712193	12.525277	-7.554681	117.194776	14.002822	20.982886	-8.955156	-10.508578
4.100000	3.521648	-7.662222	94.504970	0.302830	0.951754	0.608169	-2.636249	5.449791	-9.891878	9.047436	0.157908	32.150388	17.945006	0.000000	-5.346520	-7.703892	10.466056	1.301715	0.022719	26.207676	-12.898294	0.000000	-0.487660	0.915404	1.524721	-0.905634	1.217488	1.620016	-0.801177	2.225714	1.620016	-0.557347	2.225714	1.334131	-0.452841	1.866692	1.238836	-0.278649	1.417961	1.143541	-3.483309	10.355236	8.480040	0.000000	0.000000	16.351824	-9.716173	-6.601820	2.937401	-18.384581	49.504433	25.692187	67.134415	-3.559869	1.828387	12.508765	-7.807619	114.555419	14.480041	22.837485	-9.111668	-10.175282
4.116667	3.509900	-7.624744	94.499525	0.302958	0.951697	0.608201	-2.714460	5.458547	-9.810307	8.958196	0.156350	32.135025	17.932650	0.000000	-5.380166	-7.703224	10.427028	1.293964	0.022584	26.318638	-12.919934	0.000000	-0.495098	0.910351	1.534900	-0.919447	1.210766	1.630831	-0.813397	2.213427	1.630831	-0.565848	2.213427	1.343037	-0.459748	1.856387	1.247106	-0.282899	1.410133	1.151175	-3.536438	10.298070	8.536651	0.000000	0.000000	16.504803	-9.731406	-6.592836	2.979090	-18.271838	49.777896	25.572371	65.880524	-3.497148	2.046224	12.453849	-8.035964	112.198736	14.870920	24.554684	-9.260509	-9.819582
4.133333	3.481946	-7.595718	94.484482	0.303081	0.951617	0.608213	-2.775348	5.440626	-9.787591	8.913531	0.155570	32.102241	17.931772	0.000000	-5.411526	-7.680152	10.363702	1.294068	0.022586	26.375460	-12.935014	0.000000	-0.501845	0.904209	1.534557	-0.931977	1.202598	1.630467	-0.824481	2.198494	1.630467	-0.573559	2.198494	1.342737	-0.466013	1.843863	1.246827	-0.286754	1.400620	1.150918	-3.584629	10.228593	8.534744	0.000000	0.000000	16.703565	-9.735114	-6.489236	2.983523	-18.135137	49.932351	25.468048	64.754307	-3.416802	2.311385	12.366245	-8.253276	110.009575	15.199750	26.192786	-9.396096	-9.443969
4.150000	3.442585	-7.576813	94.453915	0.303203	0.951519	0.608200	-2.816632	5.401410	-9.813490	8.912410	0.155551	32.054117	17.933621	0.000000	-5.445614	-7.638977	10.364972	1.289771	0.022511	26.334352	-13.074781	0.000000	-0.507486	0.897475	1.527616	-0.942451	1.193641	1.623092	-0.833748	2.182120	1.623092	-0.580005	2.182120	1.336664	-0.471251	1.830130	1.241188	-0.289977	1.390188	1.145712	-3.624919	10.152413	8.496142	0.000000	0.000000	16.918029	-9.743443	-6.321834	2.954575	-17.986248	49.970633	25.363549	63.740005	-3.298751	2.573847	12.253083	-8.447806	108.096041	15.454120	27.720974	-9.553071	-9.079989
4.166667	3.403621	-7.571508	94.421843	0.303293	0.951399	0.608168	-2.832082	5.353277	-9.884148	8.954365	0.156283	31.996791	17.933073	0.000000	-5.478228	-7.591362	10.531275	1.272002	0.022201	26.180929	-13.457714	0.000000	-0.511175	0.891637	1.514527	-0.949302	1.185877	1.609185	-0.839809	2.167926	1.609185	-0.584221	2.167926	1.325211	-0.474677	1.818226	1.230553	-0.292085	1.381146	1.135896	-3.651269	10.086376	8.423347	0.000000	0.000000	17.132279	-9.765482	-6.113417	2.867339	-17.831565	49.714013	25.279917	63.127008	-3.115534	2.830160	12.126755	-8.593417	106.653132	15.606717	28.959503	-9.699782	-8.760971
4.183333	3.349477	-7.564685	94.395000	0.303348	0.951289	0.608131	-2.837419	5.281559	-10.026112	9.037176	0.157728	31.942244	17.949997	0.000000	-5.507799	-7.526113	10.556343	1.270421	0.022173	26.065633	-13.625187	0.000000	-0.514944	0.884215	1.498402	-0.956303	1.176006	1.592052	-0.846002	2.149880	1.592052	-0.588530	2.149880	1.311102	-0.478177	1.803091	1.217452	-0.294239	1.369649	1.123802	-3.678196	10.002414	8.333663	0.000000	0.000000	17.304623	-9.789277	-5.941176	2.765113	-17.679363	49.409317	25.188047	62.489540	-2.898097	3.053820	12.008511	-8.715056	105.521695	15.716060	30.038940	-9.883324	-8.442954
4.200000	3.291036	-7.562359	94.361157	0.303382	0.951180	0.608079	-2.828454	5.199655	-10.195360	9.149213	0.159684	31.900132	17.971771	0.000000	-5.537132	-7.451525	10.598128	1.265363	0.022085	25.942569	-13.819804	0.000000	-0.517194	0.876351	1.482729	-0.960481	1.165547	1.575400	-0.849698	2.130760	1.575400	-0.591101	2.130760	1.297388	-0.480267	1.787055	1.204717	-0.295525	1.357468	1.112047	-3.694267	9.913460	8.246495	0.000000	0.000000	17.421986	-9.806975	-5.805545	2.654178	-17.538409	49.063849	25.088190	62.002417	-2.651920	3.224384	11.892071	-8.809686	104.654707	15.779995	30.946339	-10.042877	-8.154607
4.216667	3.237630	-7.558933	94.321685	0.303403	0.951087	0.608028	-2.811780	5.120054	-10.380353	9.279757	0.161962	31.855013	17.993879	0.000000	-5.570091	-7.379538	10.657342	1.252880	0.021867	25.820818	-14.040236	0.000000	-0.518926	0.868627	1.469613	-0.963698	1.155273	1.561463	-0.852544	2.111979	1.561463	-0.593081	2.111979	1.285911	-0.481875	1.771303	1.194060	-0.296515	1.345503	1.102210	-3.706640	9.826077	8.173545	0.000000	0.000000	17.482208	-9.803761	-5.735195	2.572024	-17.412988	48.829631	24.956397	61.524075	-2.384697	3.327179	11.785502	-8.886008	103.950157	15.822912	31.765137	-10.190081	-7.902537
4.233333	3.195249	-7.552675	94.274977	0.303419	0.951013	0.607995	-2.788936	5.050130	-10.576144	9.422651	0.164456	31.818133	18.028677	0.000000	-5.592027	-7.319942	10.398326	1.266165	0.022099	25.836137	-13.814533	0.000000	-0.520962	0.861578	1.463741	-0.967478	1.145898	1.555225	-0.855888	2.094840	1.555225	-0.595407	2.094840	1.280773	-0.483765	1.756929	1.189290	-0.297678	1.334584	1.097806	-3.721179	9.746338	8.140888	0.000000	0.000000	17.497841	-9.776407	-5.746968	2.502107	-17.305241	48.597259	24.818921	61.196624	-2.094140	3.401873	11.714866	-8.947351	103.433564	15.870016	32.464227	-10.336600	-7.704286
4.250000	3.163059	-7.549047	94.247673	0.303405	0.950952	0.607962	-2.758724	4.992872	-10.785703	9.565638	0.166952	31.786735	18.053824	0.000000	-5.615855	-7.270696	10.374309	1.257815	0.021953	25.759634	-13.892485	0.000000	-0.522217	0.854795	1.455916	-0.969809	1.136877	1.546911	-0.857950	2.078348	1.546911	-0.596842	2.078348	1.273927	-0.484931	1.743097	1.182932	-0.298395	1.324077	1.091937	-3.730142	9.669609	8.097370	0.000000	0.000000	17.478620	-9.698100	-5.802303	2.473195	-17.210740	48.460593	24.666309	61.045062	-1.812096	3.458664	11.653874	-8.998971	103.014358	15.897172	32.993899	-10.424518	-7.560423
